<?xml version="1.0" encoding="UTF-8" standalone="no"?>
<!DOCTYPE svg PUBLIC "-//W3C//DTD SVG 1.1//EN"
 "http://www.w3.org/Graphics/SVG/1.1/DTD/svg11.dtd">
<!-- Generated by graphviz version 2.43.0 (0)
 -->
<!-- Title: %3 Pages: 1 -->
<svg width="1816pt" height="238pt"
 viewBox="0.00 0.00 1816.00 237.74" xmlns="http://www.w3.org/2000/svg" xmlns:xlink="http://www.w3.org/1999/xlink">
<g id="graph0" class="graph" transform="scale(1 1) rotate(0) translate(36 201.74)">
<title>%3</title>
<polygon fill="dimgray" stroke="transparent" points="-36,36 -36,-201.74 1780,-201.74 1780,36 -36,36"/>
<text text-anchor="middle" x="872" y="-150.54" font-family="Helvetica,sans-Serif" font-size="14.00">Sweep&#39;s Plan &amp; Progress</text>
<!-- start -->
<g id="node1" class="node">
<title>start</title>
</g>
<!-- 5a118617&#45;6074&#45;44f4&#45;8756&#45;3f4dbdd23da2 -->
<g id="node3" class="node">
<title>5a118617&#45;6074&#45;44f4&#45;8756&#45;3f4dbdd23da2</title>
<ellipse fill="yellow" stroke="black" cx="263.5" cy="-99.87" rx="200.64" ry="26.74"/>
<text text-anchor="middle" x="263.5" y="-103.67" font-family="Helvetica,sans-Serif" font-size="14.00">⋯ Create</text>
<text text-anchor="middle" x="263.5" y="-88.67" font-family="Helvetica,sans-Serif" font-size="14.00">environmental/layers/outlines_layer.py</text>
</g>
<!-- start&#45;&gt;5a118617&#45;6074&#45;44f4&#45;8756&#45;3f4dbdd23da2 -->
<g id="edge8" class="edge">
<title>start&#45;&gt;5a118617&#45;6074&#45;44f4&#45;8756&#45;3f4dbdd23da2</title>
<path fill="none" stroke="black" d="M11.23,-99.87C14.7,-99.87 30.35,-99.87 52.3,-99.87"/>
<polygon fill="black" stroke="black" points="52.43,-103.37 62.43,-99.87 52.43,-96.37 52.43,-103.37"/>
<text text-anchor="middle" x="36.84" y="-106.67" font-family="Helvetica,sans-Serif" font-size="14.00">Start</text>
</g>
<!-- end -->
<g id="node2" class="node">
<title>end</title>
</g>
<!-- 3a1b78bd&#45;e520&#45;4529&#45;a876&#45;48deba19ad34 -->
<g id="node4" class="node">
<title>3a1b78bd&#45;e520&#45;4529&#45;a876&#45;48deba19ad34</title>
<ellipse fill="white" stroke="black" cx="738.5" cy="-99.87" rx="211.35" ry="26.74"/>
<text text-anchor="middle" x="738.5" y="-103.67" font-family="Helvetica,sans-Serif" font-size="14.00">▶ Modify</text>
<text text-anchor="middle" x="738.5" y="-88.67" font-family="Helvetica,sans-Serif" font-size="14.00">environmental/layers/standard_layers.py</text>
</g>
<!-- 5a118617&#45;6074&#45;44f4&#45;8756&#45;3f4dbdd23da2&#45;&gt;3a1b78bd&#45;e520&#45;4529&#45;a876&#45;48deba19ad34 -->
<g id="edge2" class="edge">
<title>5a118617&#45;6074&#45;44f4&#45;8756&#45;3f4dbdd23da2&#45;&gt;3a1b78bd&#45;e520&#45;4529&#45;a876&#45;48deba19ad34</title>
<path fill="none" stroke="black" d="M464.35,-99.87C481.81,-99.87 499.27,-99.87 516.72,-99.87"/>
<polygon fill="black" stroke="black" points="517,-103.37 527,-99.87 517,-96.37 517,-103.37"/>
</g>
<!-- 644cc95b&#45;446a&#45;425d&#45;bb2f&#45;0af007c73e64 -->
<g id="node7" class="node">
<title>644cc95b&#45;446a&#45;425d&#45;bb2f&#45;0af007c73e64</title>
<polygon fill="white" stroke="black" points="475,-36 0,-36 0,0 475,0 475,-36"/>
<text text-anchor="middle" x="237.5" y="-14.3" font-family="Helvetica,sans-Serif" font-size="14.00">▶ Run GitHub Actions for `environmental/layers/outlines_layer.py`</text>
</g>
<!-- 5a118617&#45;6074&#45;44f4&#45;8756&#45;3f4dbdd23da2&#45;&gt;644cc95b&#45;446a&#45;425d&#45;bb2f&#45;0af007c73e64 -->
<g id="edge1" class="edge">
<title>5a118617&#45;6074&#45;44f4&#45;8756&#45;3f4dbdd23da2&#45;&gt;644cc95b&#45;446a&#45;425d&#45;bb2f&#45;0af007c73e64</title>
<path fill="none" stroke="black" stroke-dasharray="5,2" d="M254.99,-72.72C252.18,-64.08 249.05,-54.47 246.22,-45.79"/>
<polygon fill="black" stroke="black" points="249.51,-44.57 243.08,-36.15 242.85,-46.74 249.51,-44.57"/>
</g>
<!-- 7fdc38e6&#45;e87e&#45;4cf4&#45;86e8&#45;cdfdc8326dda -->
<g id="node5" class="node">
<title>7fdc38e6&#45;e87e&#45;4cf4&#45;86e8&#45;cdfdc8326dda</title>
<ellipse fill="white" stroke="black" cx="1216.5" cy="-99.87" rx="168.08" ry="26.74"/>
<text text-anchor="middle" x="1216.5" y="-103.67" font-family="Helvetica,sans-Serif" font-size="14.00">▶ Modify</text>
<text text-anchor="middle" x="1216.5" y="-88.67" font-family="Helvetica,sans-Serif" font-size="14.00">environmental/environments.py</text>
</g>
<!-- 3a1b78bd&#45;e520&#45;4529&#45;a876&#45;48deba19ad34&#45;&gt;7fdc38e6&#45;e87e&#45;4cf4&#45;86e8&#45;cdfdc8326dda -->
<g id="edge4" class="edge">
<title>3a1b78bd&#45;e520&#45;4529&#45;a876&#45;48deba19ad34&#45;&gt;7fdc38e6&#45;e87e&#45;4cf4&#45;86e8&#45;cdfdc8326dda</title>
<path fill="none" stroke="black" d="M949.96,-99.87C979.22,-99.87 1008.48,-99.87 1037.74,-99.87"/>
<polygon fill="black" stroke="black" points="1038.09,-103.37 1048.09,-99.87 1038.09,-96.37 1038.09,-103.37"/>
</g>
<!-- 2b7ba598&#45;d1b2&#45;4796&#45;a0a4&#45;3b0705480278 -->
<g id="node8" class="node">
<title>2b7ba598&#45;d1b2&#45;4796&#45;a0a4&#45;3b0705480278</title>
<polygon fill="white" stroke="black" points="984,-36 493,-36 493,0 984,0 984,-36"/>
<text text-anchor="middle" x="738.5" y="-14.3" font-family="Helvetica,sans-Serif" font-size="14.00">▶ Run GitHub Actions for `environmental/layers/standard_layers.py`</text>
</g>
<!-- 3a1b78bd&#45;e520&#45;4529&#45;a876&#45;48deba19ad34&#45;&gt;2b7ba598&#45;d1b2&#45;4796&#45;a0a4&#45;3b0705480278 -->
<g id="edge3" class="edge">
<title>3a1b78bd&#45;e520&#45;4529&#45;a876&#45;48deba19ad34&#45;&gt;2b7ba598&#45;d1b2&#45;4796&#45;a0a4&#45;3b0705480278</title>
<path fill="none" stroke="black" stroke-dasharray="5,2" d="M738.5,-72.72C738.5,-64.27 738.5,-54.89 738.5,-46.36"/>
<polygon fill="black" stroke="black" points="742,-46.15 738.5,-36.15 735,-46.15 742,-46.15"/>
</g>
<!-- 88363568&#45;b3ca&#45;4db2&#45;a88a&#45;005464e5ac35 -->
<g id="node6" class="node">
<title>88363568&#45;b3ca&#45;4db2&#45;a88a&#45;005464e5ac35</title>
<ellipse fill="white" stroke="black" cx="1545.5" cy="-99.87" rx="73.58" ry="26.74"/>
<text text-anchor="middle" x="1545.5" y="-103.67" font-family="Helvetica,sans-Serif" font-size="14.00">▶ Modify</text>
<text text-anchor="middle" x="1545.5" y="-88.67" font-family="Helvetica,sans-Serif" font-size="14.00">README.md</text>
</g>
<!-- 7fdc38e6&#45;e87e&#45;4cf4&#45;86e8&#45;cdfdc8326dda&#45;&gt;88363568&#45;b3ca&#45;4db2&#45;a88a&#45;005464e5ac35 -->
<g id="edge6" class="edge">
<title>7fdc38e6&#45;e87e&#45;4cf4&#45;86e8&#45;cdfdc8326dda&#45;&gt;88363568&#45;b3ca&#45;4db2&#45;a88a&#45;005464e5ac35</title>
<path fill="none" stroke="black" d="M1384.86,-99.87C1410.43,-99.87 1436.01,-99.87 1461.58,-99.87"/>
<polygon fill="black" stroke="black" points="1461.77,-103.37 1471.77,-99.87 1461.77,-96.37 1461.77,-103.37"/>
</g>
<!-- a0d6f126&#45;9d1e&#45;4e66&#45;a60f&#45;f5eea7605968 -->
<g id="node9" class="node">
<title>a0d6f126&#45;9d1e&#45;4e66&#45;a60f&#45;f5eea7605968</title>
<polygon fill="white" stroke="black" points="1431,-36 1002,-36 1002,0 1431,0 1431,-36"/>
<text text-anchor="middle" x="1216.5" y="-14.3" font-family="Helvetica,sans-Serif" font-size="14.00">▶ Run GitHub Actions for `environmental/environments.py`</text>
</g>
<!-- 7fdc38e6&#45;e87e&#45;4cf4&#45;86e8&#45;cdfdc8326dda&#45;&gt;a0d6f126&#45;9d1e&#45;4e66&#45;a60f&#45;f5eea7605968 -->
<g id="edge5" class="edge">
<title>7fdc38e6&#45;e87e&#45;4cf4&#45;86e8&#45;cdfdc8326dda&#45;&gt;a0d6f126&#45;9d1e&#45;4e66&#45;a60f&#45;f5eea7605968</title>
<path fill="none" stroke="black" stroke-dasharray="5,2" d="M1216.5,-72.72C1216.5,-64.27 1216.5,-54.89 1216.5,-46.36"/>
<polygon fill="black" stroke="black" points="1220,-46.15 1216.5,-36.15 1213,-46.15 1220,-46.15"/>
</g>
<!-- 88363568&#45;b3ca&#45;4db2&#45;a88a&#45;005464e5ac35&#45;&gt;end -->
<g id="edge9" class="edge">
<title>88363568&#45;b3ca&#45;4db2&#45;a88a&#45;005464e5ac35&#45;&gt;end</title>
<path fill="none" stroke="black" d="M1619.22,-99.87C1637.84,-99.87 1655.64,-99.87 1666.56,-99.87"/>
<polygon fill="black" stroke="black" points="1666.78,-103.37 1676.78,-99.87 1666.78,-96.37 1666.78,-103.37"/>
<text text-anchor="middle" x="1648.02" y="-106.67" font-family="Helvetica,sans-Serif" font-size="14.00">Finish</text>
</g>
<!-- d18ecd83&#45;7ea8&#45;4e88&#45;9252&#45;f83477ff8466 -->
<g id="node10" class="node">
<title>d18ecd83&#45;7ea8&#45;4e88&#45;9252&#45;f83477ff8466</title>
<polygon fill="white" stroke="black" points="1744,-36 1449,-36 1449,0 1744,0 1744,-36"/>
<text text-anchor="middle" x="1596.5" y="-14.3" font-family="Helvetica,sans-Serif" font-size="14.00">▶ Run GitHub Actions for `README.md`</text>
</g>
<!-- 88363568&#45;b3ca&#45;4db2&#45;a88a&#45;005464e5ac35&#45;&gt;d18ecd83&#45;7ea8&#45;4e88&#45;9252&#45;f83477ff8466 -->
<g id="edge7" class="edge">
<title>88363568&#45;b3ca&#45;4db2&#45;a88a&#45;005464e5ac35&#45;&gt;d18ecd83&#45;7ea8&#45;4e88&#45;9252&#45;f83477ff8466</title>
<path fill="none" stroke="black" stroke-dasharray="5,2" d="M1561.64,-73.6C1567.56,-64.32 1574.27,-53.81 1580.21,-44.51"/>
<polygon fill="black" stroke="black" points="1583.19,-46.35 1585.62,-36.04 1577.29,-42.58 1583.19,-46.35"/>
</g>
</g>
</svg>
