<?xml version="1.0" encoding="UTF-8" standalone="no"?>
<!DOCTYPE svg PUBLIC "-//W3C//DTD SVG 1.1//EN"
 "http://www.w3.org/Graphics/SVG/1.1/DTD/svg11.dtd">
<!-- Generated by graphviz version 2.43.0 (0)
 -->
<!-- Title: %3 Pages: 1 -->
<svg width="1821pt" height="238pt"
 viewBox="0.00 0.00 1820.50 237.74" xmlns="http://www.w3.org/2000/svg" xmlns:xlink="http://www.w3.org/1999/xlink">
<g id="graph0" class="graph" transform="scale(1 1) rotate(0) translate(36 201.74)">
<title>%3</title>
<polygon fill="dimgray" stroke="transparent" points="-36,36 -36,-201.74 1784.5,-201.74 1784.5,36 -36,36"/>
<text text-anchor="middle" x="874.25" y="-150.54" font-family="Helvetica,sans-Serif" font-size="14.00">Sweep&#39;s Plan &amp; Progress</text>
<!-- start -->
<g id="node1" class="node">
<title>start</title>
</g>
<!-- 5a118617&#45;6074&#45;44f4&#45;8756&#45;3f4dbdd23da2 -->
<g id="node3" class="node">
<title>5a118617&#45;6074&#45;44f4&#45;8756&#45;3f4dbdd23da2</title>
<ellipse fill="#0ee832" stroke="black" cx="265" cy="-99.87" rx="200.64" ry="26.74"/>
<text text-anchor="middle" x="265" y="-103.67" font-family="Helvetica,sans-Serif" font-size="14.00">✓ Create</text>
<text text-anchor="middle" x="265" y="-88.67" font-family="Helvetica,sans-Serif" font-size="14.00">environmental/layers/outlines_layer.py</text>
</g>
<!-- start&#45;&gt;5a118617&#45;6074&#45;44f4&#45;8756&#45;3f4dbdd23da2 -->
<g id="edge8" class="edge">
<title>start&#45;&gt;5a118617&#45;6074&#45;44f4&#45;8756&#45;3f4dbdd23da2</title>
<path fill="none" stroke="black" d="M12.73,-99.87C16.2,-99.87 31.85,-99.87 53.8,-99.87"/>
<polygon fill="black" stroke="black" points="53.93,-103.37 63.93,-99.87 53.93,-96.37 53.93,-103.37"/>
<text text-anchor="middle" x="38.34" y="-106.67" font-family="Helvetica,sans-Serif" font-size="14.00">Start</text>
</g>
<!-- end -->
<g id="node2" class="node">
<title>end</title>
</g>
<!-- 3a1b78bd&#45;e520&#45;4529&#45;a876&#45;48deba19ad34 -->
<g id="node4" class="node">
<title>3a1b78bd&#45;e520&#45;4529&#45;a876&#45;48deba19ad34</title>
<ellipse fill="#ee0000" stroke="black" cx="741" cy="-99.87" rx="211.35" ry="26.74"/>
<text text-anchor="middle" x="741" y="-103.67" font-family="Helvetica,sans-Serif" font-size="14.00">✗ Modify</text>
<text text-anchor="middle" x="741" y="-88.67" font-family="Helvetica,sans-Serif" font-size="14.00">environmental/layers/standard_layers.py</text>
</g>
<!-- 5a118617&#45;6074&#45;44f4&#45;8756&#45;3f4dbdd23da2&#45;&gt;3a1b78bd&#45;e520&#45;4529&#45;a876&#45;48deba19ad34 -->
<g id="edge2" class="edge">
<title>5a118617&#45;6074&#45;44f4&#45;8756&#45;3f4dbdd23da2&#45;&gt;3a1b78bd&#45;e520&#45;4529&#45;a876&#45;48deba19ad34</title>
<path fill="none" stroke="black" d="M466.28,-99.87C483.85,-99.87 501.41,-99.87 518.98,-99.87"/>
<polygon fill="black" stroke="black" points="519.32,-103.37 529.32,-99.87 519.32,-96.37 519.32,-103.37"/>
</g>
<!-- 644cc95b&#45;446a&#45;425d&#45;bb2f&#45;0af007c73e64 -->
<g id="node7" class="node">
<title>644cc95b&#45;446a&#45;425d&#45;bb2f&#45;0af007c73e64</title>
<polygon fill="#0ee832" stroke="black" points="476,-36 0,-36 0,0 476,0 476,-36"/>
<text text-anchor="middle" x="238" y="-14.3" font-family="Helvetica,sans-Serif" font-size="14.00">✓ Run GitHub Actions for `environmental/layers/outlines_layer.py`</text>
</g>
<!-- 5a118617&#45;6074&#45;44f4&#45;8756&#45;3f4dbdd23da2&#45;&gt;644cc95b&#45;446a&#45;425d&#45;bb2f&#45;0af007c73e64 -->
<g id="edge1" class="edge">
<title>5a118617&#45;6074&#45;44f4&#45;8756&#45;3f4dbdd23da2&#45;&gt;644cc95b&#45;446a&#45;425d&#45;bb2f&#45;0af007c73e64</title>
<path fill="none" stroke="black" stroke-dasharray="5,2" d="M256.16,-72.72C253.24,-64.08 249.99,-54.47 247.06,-45.79"/>
<polygon fill="black" stroke="black" points="250.31,-44.5 243.8,-36.15 243.68,-46.74 250.31,-44.5"/>
</g>
<!-- 7fdc38e6&#45;e87e&#45;4cf4&#45;86e8&#45;cdfdc8326dda -->
<g id="node5" class="node">
<title>7fdc38e6&#45;e87e&#45;4cf4&#45;86e8&#45;cdfdc8326dda</title>
<ellipse fill="white" stroke="black" cx="1221" cy="-99.87" rx="168.08" ry="26.74"/>
<text text-anchor="middle" x="1221" y="-103.67" font-family="Helvetica,sans-Serif" font-size="14.00">▶ Modify</text>
<text text-anchor="middle" x="1221" y="-88.67" font-family="Helvetica,sans-Serif" font-size="14.00">environmental/environments.py</text>
</g>
<!-- 3a1b78bd&#45;e520&#45;4529&#45;a876&#45;48deba19ad34&#45;&gt;7fdc38e6&#45;e87e&#45;4cf4&#45;86e8&#45;cdfdc8326dda -->
<g id="edge4" class="edge">
<title>3a1b78bd&#45;e520&#45;4529&#45;a876&#45;48deba19ad34&#45;&gt;7fdc38e6&#45;e87e&#45;4cf4&#45;86e8&#45;cdfdc8326dda</title>
<path fill="none" stroke="black" d="M952.88,-99.87C982.75,-99.87 1012.63,-99.87 1042.5,-99.87"/>
<polygon fill="black" stroke="black" points="1042.64,-103.37 1052.64,-99.87 1042.64,-96.37 1042.64,-103.37"/>
</g>
<!-- 2b7ba598&#45;d1b2&#45;4796&#45;a0a4&#45;3b0705480278 -->
<g id="node8" class="node">
<title>2b7ba598&#45;d1b2&#45;4796&#45;a0a4&#45;3b0705480278</title>
<polygon fill="yellow" stroke="black" points="988,-36 494,-36 494,0 988,0 988,-36"/>
<text text-anchor="middle" x="741" y="-14.3" font-family="Helvetica,sans-Serif" font-size="14.00">⋯ Run GitHub Actions for `environmental/layers/standard_layers.py`</text>
</g>
<!-- 3a1b78bd&#45;e520&#45;4529&#45;a876&#45;48deba19ad34&#45;&gt;2b7ba598&#45;d1b2&#45;4796&#45;a0a4&#45;3b0705480278 -->
<g id="edge3" class="edge">
<title>3a1b78bd&#45;e520&#45;4529&#45;a876&#45;48deba19ad34&#45;&gt;2b7ba598&#45;d1b2&#45;4796&#45;a0a4&#45;3b0705480278</title>
<path fill="none" stroke="black" stroke-dasharray="5,2" d="M741,-72.72C741,-64.27 741,-54.89 741,-46.36"/>
<polygon fill="black" stroke="black" points="744.5,-46.15 741,-36.15 737.5,-46.15 744.5,-46.15"/>
</g>
<!-- 88363568&#45;b3ca&#45;4db2&#45;a88a&#45;005464e5ac35 -->
<g id="node6" class="node">
<title>88363568&#45;b3ca&#45;4db2&#45;a88a&#45;005464e5ac35</title>
<ellipse fill="white" stroke="black" cx="1550" cy="-99.87" rx="73.58" ry="26.74"/>
<text text-anchor="middle" x="1550" y="-103.67" font-family="Helvetica,sans-Serif" font-size="14.00">▶ Modify</text>
<text text-anchor="middle" x="1550" y="-88.67" font-family="Helvetica,sans-Serif" font-size="14.00">README.md</text>
</g>
<!-- 7fdc38e6&#45;e87e&#45;4cf4&#45;86e8&#45;cdfdc8326dda&#45;&gt;88363568&#45;b3ca&#45;4db2&#45;a88a&#45;005464e5ac35 -->
<g id="edge6" class="edge">
<title>7fdc38e6&#45;e87e&#45;4cf4&#45;86e8&#45;cdfdc8326dda&#45;&gt;88363568&#45;b3ca&#45;4db2&#45;a88a&#45;005464e5ac35</title>
<path fill="none" stroke="black" d="M1389.36,-99.87C1414.93,-99.87 1440.51,-99.87 1466.08,-99.87"/>
<polygon fill="black" stroke="black" points="1466.27,-103.37 1476.27,-99.87 1466.27,-96.37 1466.27,-103.37"/>
</g>
<!-- a0d6f126&#45;9d1e&#45;4e66&#45;a60f&#45;f5eea7605968 -->
<g id="node9" class="node">
<title>a0d6f126&#45;9d1e&#45;4e66&#45;a60f&#45;f5eea7605968</title>
<polygon fill="white" stroke="black" points="1435.5,-36 1006.5,-36 1006.5,0 1435.5,0 1435.5,-36"/>
<text text-anchor="middle" x="1221" y="-14.3" font-family="Helvetica,sans-Serif" font-size="14.00">▶ Run GitHub Actions for `environmental/environments.py`</text>
</g>
<!-- 7fdc38e6&#45;e87e&#45;4cf4&#45;86e8&#45;cdfdc8326dda&#45;&gt;a0d6f126&#45;9d1e&#45;4e66&#45;a60f&#45;f5eea7605968 -->
<g id="edge5" class="edge">
<title>7fdc38e6&#45;e87e&#45;4cf4&#45;86e8&#45;cdfdc8326dda&#45;&gt;a0d6f126&#45;9d1e&#45;4e66&#45;a60f&#45;f5eea7605968</title>
<path fill="none" stroke="black" stroke-dasharray="5,2" d="M1221,-72.72C1221,-64.27 1221,-54.89 1221,-46.36"/>
<polygon fill="black" stroke="black" points="1224.5,-46.15 1221,-36.15 1217.5,-46.15 1224.5,-46.15"/>
</g>
<!-- 88363568&#45;b3ca&#45;4db2&#45;a88a&#45;005464e5ac35&#45;&gt;end -->
<g id="edge9" class="edge">
<title>88363568&#45;b3ca&#45;4db2&#45;a88a&#45;005464e5ac35&#45;&gt;end</title>
<path fill="none" stroke="black" d="M1623.72,-99.87C1642.34,-99.87 1660.14,-99.87 1671.06,-99.87"/>
<polygon fill="black" stroke="black" points="1671.28,-103.37 1681.28,-99.87 1671.28,-96.37 1671.28,-103.37"/>
<text text-anchor="middle" x="1652.52" y="-106.67" font-family="Helvetica,sans-Serif" font-size="14.00">Finish</text>
</g>
<!-- d18ecd83&#45;7ea8&#45;4e88&#45;9252&#45;f83477ff8466 -->
<g id="node10" class="node">
<title>d18ecd83&#45;7ea8&#45;4e88&#45;9252&#45;f83477ff8466</title>
<polygon fill="white" stroke="black" points="1748.5,-36 1453.5,-36 1453.5,0 1748.5,0 1748.5,-36"/>
<text text-anchor="middle" x="1601" y="-14.3" font-family="Helvetica,sans-Serif" font-size="14.00">▶ Run GitHub Actions for `README.md`</text>
</g>
<!-- 88363568&#45;b3ca&#45;4db2&#45;a88a&#45;005464e5ac35&#45;&gt;d18ecd83&#45;7ea8&#45;4e88&#45;9252&#45;f83477ff8466 -->
<g id="edge7" class="edge">
<title>88363568&#45;b3ca&#45;4db2&#45;a88a&#45;005464e5ac35&#45;&gt;d18ecd83&#45;7ea8&#45;4e88&#45;9252&#45;f83477ff8466</title>
<path fill="none" stroke="black" stroke-dasharray="5,2" d="M1566.14,-73.6C1572.06,-64.32 1578.77,-53.81 1584.71,-44.51"/>
<polygon fill="black" stroke="black" points="1587.69,-46.35 1590.12,-36.04 1581.79,-42.58 1587.69,-46.35"/>
</g>
</g>
</svg>
