<?xml version="1.0" encoding="UTF-8" standalone="no"?>
<!DOCTYPE svg PUBLIC "-//W3C//DTD SVG 1.1//EN"
 "http://www.w3.org/Graphics/SVG/1.1/DTD/svg11.dtd">
<!-- Generated by graphviz version 2.43.0 (0)
 -->
<!-- Title: %3 Pages: 1 -->
<svg width="662pt" height="238pt"
 viewBox="0.00 0.00 662.00 237.74" xmlns="http://www.w3.org/2000/svg" xmlns:xlink="http://www.w3.org/1999/xlink">
<g id="graph0" class="graph" transform="scale(1 1) rotate(0) translate(36 201.74)">
<title>%3</title>
<polygon fill="dimgray" stroke="transparent" points="-36,36 -36,-201.74 626,-201.74 626,36 -36,36"/>
<text text-anchor="middle" x="295" y="-150.54" font-family="Helvetica,sans-Serif" font-size="14.00">Sweep&#39;s Plan &amp; Progress</text>
<!-- start -->
<g id="node1" class="node">
<title>start</title>
</g>
<!-- 9e63e348&#45;3ad1&#45;4fa5&#45;9936&#45;a70c93d7391c -->
<g id="node3" class="node">
<title>9e63e348&#45;3ad1&#45;4fa5&#45;9936&#45;a70c93d7391c</title>
<ellipse fill="#0ee832" stroke="black" cx="206.5" cy="-99.87" rx="59.29" ry="26.74"/>
<text text-anchor="middle" x="206.5" y="-103.67" font-family="Helvetica,sans-Serif" font-size="14.00">✓ Create</text>
<text text-anchor="middle" x="206.5" y="-88.67" font-family="Helvetica,sans-Serif" font-size="14.00">DOCS.md</text>
</g>
<!-- start&#45;&gt;9e63e348&#45;3ad1&#45;4fa5&#45;9936&#45;a70c93d7391c -->
<g id="edge4" class="edge">
<title>start&#45;&gt;9e63e348&#45;3ad1&#45;4fa5&#45;9936&#45;a70c93d7391c</title>
<path fill="none" stroke="black" d="M96.21,-99.87C99.84,-99.87 116.97,-99.87 136.69,-99.87"/>
<polygon fill="black" stroke="black" points="136.85,-103.37 146.85,-99.87 136.85,-96.37 136.85,-103.37"/>
<text text-anchor="middle" x="121.55" y="-106.67" font-family="Helvetica,sans-Serif" font-size="14.00">Start</text>
</g>
<!-- end -->
<g id="node2" class="node">
<title>end</title>
</g>
<!-- 6ffa0ee1&#45;15bc&#45;4b99&#45;ae3d&#45;06208548c681 -->
<g id="node4" class="node">
<title>6ffa0ee1&#45;15bc&#45;4b99&#45;ae3d&#45;06208548c681</title>
<ellipse fill="white" stroke="black" cx="408.5" cy="-99.87" rx="73.58" ry="26.74"/>
<text text-anchor="middle" x="408.5" y="-103.67" font-family="Helvetica,sans-Serif" font-size="14.00">▶ Modify</text>
<text text-anchor="middle" x="408.5" y="-88.67" font-family="Helvetica,sans-Serif" font-size="14.00">README.md</text>
</g>
<!-- 9e63e348&#45;3ad1&#45;4fa5&#45;9936&#45;a70c93d7391c&#45;&gt;6ffa0ee1&#45;15bc&#45;4b99&#45;ae3d&#45;06208548c681 -->
<g id="edge2" class="edge">
<title>9e63e348&#45;3ad1&#45;4fa5&#45;9936&#45;a70c93d7391c&#45;&gt;6ffa0ee1&#45;15bc&#45;4b99&#45;ae3d&#45;06208548c681</title>
<path fill="none" stroke="black" d="M266.07,-99.87C285.58,-99.87 305.08,-99.87 324.58,-99.87"/>
<polygon fill="black" stroke="black" points="324.78,-103.37 334.78,-99.87 324.78,-96.37 324.78,-103.37"/>
</g>
<!-- a10de9e8&#45;148e&#45;4554&#45;9e8a&#45;4f296e2d2d7e -->
<g id="node5" class="node">
<title>a10de9e8&#45;148e&#45;4554&#45;9e8a&#45;4f296e2d2d7e</title>
<polygon fill="#0ee832" stroke="black" points="277,-36 0,-36 0,0 277,0 277,-36"/>
<text text-anchor="middle" x="138.5" y="-14.3" font-family="Helvetica,sans-Serif" font-size="14.00">✓ Run GitHub Actions for `DOCS.md`</text>
</g>
<!-- 9e63e348&#45;3ad1&#45;4fa5&#45;9936&#45;a70c93d7391c&#45;&gt;a10de9e8&#45;148e&#45;4554&#45;9e8a&#45;4f296e2d2d7e -->
<g id="edge1" class="edge">
<title>9e63e348&#45;3ad1&#45;4fa5&#45;9936&#45;a70c93d7391c&#45;&gt;a10de9e8&#45;148e&#45;4554&#45;9e8a&#45;4f296e2d2d7e</title>
<path fill="none" stroke="black" stroke-dasharray="5,2" d="M185.73,-74.47C177.49,-64.8 168.02,-53.68 159.74,-43.95"/>
<polygon fill="black" stroke="black" points="162.26,-41.51 153.11,-36.16 156.93,-46.04 162.26,-41.51"/>
</g>
<!-- 6ffa0ee1&#45;15bc&#45;4b99&#45;ae3d&#45;06208548c681&#45;&gt;end -->
<g id="edge5" class="edge">
<title>6ffa0ee1&#45;15bc&#45;4b99&#45;ae3d&#45;06208548c681&#45;&gt;end</title>
<path fill="none" stroke="black" d="M482.22,-99.87C500.84,-99.87 518.64,-99.87 529.56,-99.87"/>
<polygon fill="black" stroke="black" points="529.78,-103.37 539.78,-99.87 529.78,-96.37 529.78,-103.37"/>
<text text-anchor="middle" x="511.02" y="-106.67" font-family="Helvetica,sans-Serif" font-size="14.00">Finish</text>
</g>
<!-- 6978f4aa&#45;c365&#45;41d5&#45;befa&#45;ba1469b2b155 -->
<g id="node6" class="node">
<title>6978f4aa&#45;c365&#45;41d5&#45;befa&#45;ba1469b2b155</title>
<polygon fill="white" stroke="black" points="590,-36 295,-36 295,0 590,0 590,-36"/>
<text text-anchor="middle" x="442.5" y="-14.3" font-family="Helvetica,sans-Serif" font-size="14.00">▶ Run GitHub Actions for `README.md`</text>
</g>
<!-- 6ffa0ee1&#45;15bc&#45;4b99&#45;ae3d&#45;06208548c681&#45;&gt;6978f4aa&#45;c365&#45;41d5&#45;befa&#45;ba1469b2b155 -->
<g id="edge3" class="edge">
<title>6ffa0ee1&#45;15bc&#45;4b99&#45;ae3d&#45;06208548c681&#45;&gt;6978f4aa&#45;c365&#45;41d5&#45;befa&#45;ba1469b2b155</title>
<path fill="none" stroke="black" stroke-dasharray="5,2" d="M419.44,-73.16C423.17,-64.41 427.34,-54.62 431.1,-45.79"/>
<polygon fill="black" stroke="black" points="434.42,-46.91 435.12,-36.34 427.98,-44.17 434.42,-46.91"/>
</g>
</g>
</svg>
