<?xml version="1.0" encoding="UTF-8" standalone="no"?>
<!DOCTYPE svg PUBLIC "-//W3C//DTD SVG 1.1//EN"
 "http://www.w3.org/Graphics/SVG/1.1/DTD/svg11.dtd">
<!-- Generated by graphviz version 2.43.0 (0)
 -->
<!-- Title: %3 Pages: 1 -->
<svg width="1525pt" height="165pt"
 viewBox="0.00 0.00 1525.00 164.74" xmlns="http://www.w3.org/2000/svg" xmlns:xlink="http://www.w3.org/1999/xlink">
<g id="graph0" class="graph" transform="scale(1 1) rotate(0) translate(36 128.74)">
<title>%3</title>
<polygon fill="dimgray" stroke="transparent" points="-36,36 -36,-128.74 1489,-128.74 1489,36 -36,36"/>
<text text-anchor="middle" x="726.5" y="-77.54" font-family="Helvetica,sans-Serif" font-size="14.00">Sweep&#39;s Plan &amp; Progress</text>
<!-- start -->
<g id="node1" class="node">
<title>start</title>
</g>
<!-- ae5c59a2&#45;4175&#45;4bf5&#45;8866&#45;ac78cdd7d945 -->
<g id="node3" class="node">
<title>ae5c59a2&#45;4175&#45;4bf5&#45;8866&#45;ac78cdd7d945</title>
<ellipse fill="#0ee832" stroke="black" cx="254.5" cy="-26.87" rx="202.47" ry="26.74"/>
<text text-anchor="middle" x="254.5" y="-30.67" font-family="Helvetica,sans-Serif" font-size="14.00">✓ Create</text>
<text text-anchor="middle" x="254.5" y="-15.67" font-family="Helvetica,sans-Serif" font-size="14.00">environmental/layers/ascii_art_layer.py</text>
</g>
<!-- start&#45;&gt;ae5c59a2&#45;4175&#45;4bf5&#45;8866&#45;ac78cdd7d945 -->
<g id="edge3" class="edge">
<title>start&#45;&gt;ae5c59a2&#45;4175&#45;4bf5&#45;8866&#45;ac78cdd7d945</title>
<path fill="none" stroke="black" d="M1.23,-26.87C4.69,-26.87 20.2,-26.87 41.98,-26.87"/>
<polygon fill="black" stroke="black" points="42.04,-30.37 52.04,-26.87 42.04,-23.37 42.04,-30.37"/>
<text text-anchor="middle" x="26.63" y="-33.67" font-family="Helvetica,sans-Serif" font-size="14.00">Start</text>
</g>
<!-- end -->
<g id="node2" class="node">
<title>end</title>
</g>
<!-- 65ee46d6&#45;2515&#45;4459&#45;9748&#45;ea8c00085d8b -->
<g id="node4" class="node">
<title>65ee46d6&#45;2515&#45;4459&#45;9748&#45;ea8c00085d8b</title>
<ellipse fill="#0ee832" stroke="black" cx="718.5" cy="-26.87" rx="226.05" ry="26.74"/>
<text text-anchor="middle" x="718.5" y="-30.67" font-family="Helvetica,sans-Serif" font-size="14.00">✓ Create</text>
<text text-anchor="middle" x="718.5" y="-15.67" font-family="Helvetica,sans-Serif" font-size="14.00">environmental/layers/ascii_art_generator.py</text>
</g>
<!-- ae5c59a2&#45;4175&#45;4bf5&#45;8866&#45;ac78cdd7d945&#45;&gt;65ee46d6&#45;2515&#45;4459&#45;9748&#45;ea8c00085d8b -->
<g id="edge1" class="edge">
<title>ae5c59a2&#45;4175&#45;4bf5&#45;8866&#45;ac78cdd7d945&#45;&gt;65ee46d6&#45;2515&#45;4459&#45;9748&#45;ea8c00085d8b</title>
<path fill="none" stroke="black" d="M457.05,-26.87C465.34,-26.87 473.63,-26.87 481.92,-26.87"/>
<polygon fill="black" stroke="black" points="482.03,-30.37 492.03,-26.87 482.03,-23.37 482.03,-30.37"/>
</g>
<!-- 8a34506d&#45;0d4e&#45;4274&#45;801f&#45;f2209dde1533 -->
<g id="node5" class="node">
<title>8a34506d&#45;0d4e&#45;4274&#45;801f&#45;f2209dde1533</title>
<ellipse fill="#0ee832" stroke="black" cx="1187.5" cy="-26.87" rx="207.36" ry="26.74"/>
<text text-anchor="middle" x="1187.5" y="-30.67" font-family="Helvetica,sans-Serif" font-size="14.00">✓ Create</text>
<text text-anchor="middle" x="1187.5" y="-15.67" font-family="Helvetica,sans-Serif" font-size="14.00">environmental/layers/layers_by_type.py</text>
</g>
<!-- 65ee46d6&#45;2515&#45;4459&#45;9748&#45;ea8c00085d8b&#45;&gt;8a34506d&#45;0d4e&#45;4274&#45;801f&#45;f2209dde1533 -->
<g id="edge2" class="edge">
<title>65ee46d6&#45;2515&#45;4459&#45;9748&#45;ea8c00085d8b&#45;&gt;8a34506d&#45;0d4e&#45;4274&#45;801f&#45;f2209dde1533</title>
<path fill="none" stroke="black" d="M945.21,-26.87C953.51,-26.87 961.81,-26.87 970.11,-26.87"/>
<polygon fill="black" stroke="black" points="970.23,-30.37 980.23,-26.87 970.23,-23.37 970.23,-30.37"/>
</g>
<!-- 8a34506d&#45;0d4e&#45;4274&#45;801f&#45;f2209dde1533&#45;&gt;end -->
<g id="edge4" class="edge">
<title>8a34506d&#45;0d4e&#45;4274&#45;801f&#45;f2209dde1533&#45;&gt;end</title>
<path fill="none" stroke="black" d="M1395,-26.87C1414.94,-26.87 1431.5,-26.87 1441.65,-26.87"/>
<polygon fill="black" stroke="black" points="1441.88,-30.37 1451.88,-26.87 1441.88,-23.37 1441.88,-30.37"/>
<text text-anchor="middle" x="1423.34" y="-33.67" font-family="Helvetica,sans-Serif" font-size="14.00">Finish</text>
</g>
</g>
</svg>
